inDegrees=yes
name=ik_OwnShooting_orientations2.mot
DataType=double
version=3
OpenSimVersion=4.3-2021-08-27-4bc7ad9
endheader
time	pelvis_tilt	pelvis_list	pelvis_rotation	pelvis_tx	pelvis_ty	pelvis_tz	hip_flexion_r	hip_adduction_r	hip_rotation_r	knee_angle_r	knee_angle_r_beta	ankle_angle_r	subtalar_angle_r	mtp_angle_r	hip_flexion_l	hip_adduction_l	hip_rotation_l	knee_angle_l	knee_angle_l_beta	ankle_angle_l	subtalar_angle_l	mtp_angle_l	lumbar_extension	lumbar_bending	lumbar_rotation	arm_flex_r	arm_add_r	arm_rot_r	elbow_flex_r	pro_sup_r	wrist_flex_r	wrist_dev_r	arm_flex_l	arm_add_l	arm_rot_l	elbow_flex_l	pro_sup_l	wrist_flex_l	wrist_dev_l
7.06	2.288163071323992	-1.366273231952577	148.8891751550204	0	0.9399999999999999	0	44.8483914877694	-10.00009359261469	0	59.91939500643626	1.045790728665362	-4.999984937683715	0	0	44.8483914877694	-10.00009359261469	0	59.91939500643626	1.045790728665362	-4.999984937683715	0	0	6.625437690356707	-12.29138045887675	4.94486875282776	-89.98149166100519	-19.95970569365056	-89.97270685256169	118.5421564608629	45.00104367738116	0	0	0	-14.09889720935164	0	75.12586023555127	45.00104367738116	0	0
7.07	2.276643134035471	-1.367550225811782	148.898704771762	0	0.9399999999999999	0	44.84920012802171	-10.00009235159341	0	59.91981822372933	1.045798115200577	-4.999985177008052	0	0	44.84920012802171	-10.00009235159341	0	59.91981822372933	1.045798115200577	-4.999985177008052	0	0	7.272105813083648	-8.502977172406037	5.199474054744552	-89.97816669585171	-24.24064934129961	-89.83734332602764	114.1119509325365	45.00103198922419	0	0	0	-14.10179067897724	0	75.1251898710662	45.00103198922419	0	0
7.08	2.278890424840899	-1.373075301364606	148.8868084845009	0	0.9399999999999999	0	44.85170225481453	-10.00008858225567	0	59.92114717334494	1.045821309746963	-4.999985900812004	0	0	44.85170225481453	-10.00008858225567	0	59.92114717334494	1.045821309746963	-4.999985900812004	0	0	10.69135759434297	-6.047332619380587	5.642644808629726	-89.93570881874653	-31.1304275641311	-82.67959047558945	106.2846814554587	45.00099636135415	0	0	0	-14.1108243426138	0	75.12311560242648	45.00099636135415	0	0
7.09	2.287172287248814	-1.369811502998242	148.8948079688411	0	0.9399999999999999	0	44.8565672872647	-10.00008149539113	0	59.92372328808698	1.04586627143112	-4.99998724325931	0	0	44.8565672872647	-10.00008149539113	0	59.92372328808698	1.04586627143112	-4.99998724325931	0	0	12.40150101183871	-4.735335762141473	5.780055951504541	-81.79954958287692	-38.18407411118676	-68.93623250397408	96.42121928482766	45.00092873078481	0	0	0	-14.1285084815243	0	75.11908247938794	45.00092873078481	0	0
7.1	2.272874165752801	-1.383178048241413	148.8778961373106	0	0.9399999999999999	0	44.86105055217953	-10.00007525169509	0	59.92608715154488	1.045907528631528	-4.999988406428476	0	0	44.86105055217953	-10.00007525169509	0	59.92608715154488	1.045907528631528	-4.999988406428476	0	0	12.37608011120912	-4.75412436834946	5.806143292545041	-66.73853947236265	-41.70091597206402	-49.47029407003132	86.19891878003075	45.00086842167055	0	0	0	-14.14498186166117	0	75.11536584198006	45.00086842167055	0	0
7.11	2.27059826632708	-1.388878695371728	148.8801355446086	0	0.9399999999999999	0	44.86454293438784	-10.00007064706502	0	59.92793941779701	1.045939856776251	-4.999989249122556	0	0	44.86454293438784	-10.00007064706502	0	59.92793941779701	1.045939856776251	-4.999989249122556	0	0	12.37332887386194	-4.743838481047813	5.794596761427846	-51.0124718523282	-42.2715267164905	-29.2746298916261	75.00190401585699	45.00082333920356	0	0	0	-14.15802582626256	0	75.11247064814347	45.00082333920356	0	0
7.12	2.278886201162599	-1.400255945907051	148.8885399926573	0	0.9399999999999999	0	44.86738156781959	-10.00006705285015	0	59.92944733120994	1.045966174830142	-4.999989897860346	0	0	44.86738156781959	-10.00006705285015	0	59.92944733120994	1.045966174830142	-4.999989897860346	0	0	12.37325626251568	-4.759835865533913	5.783600652088488	-38.9324586045658	-40.7939157761715	-12.71809833928617	64.98916642340002	45.00078778439319	0	0	0	-14.16874824121565	0	75.11011741340185	45.00078778439319	0	0
7.13	2.281369873979135	-1.392746264037745	148.8888750833846	0	0.9399999999999999	0	44.86837224733789	-10.00006580998544	0	59.92996562892257	1.045975220831733	-4.99999012088357	0	0	44.86837224733789	-10.00006580998544	0	59.92996562892257	1.045975220831733	-4.99999012088357	0	0	12.37239689615452	-4.723915255083644	5.770164857321769	-34.70761043932733	-42.52357968245054	-3.019355499542966	59.25687256085717	45.00077544455731	0	0	0	-14.17248627398021	0	75.10929613742152	45.00077544455731	0	0
7.14	2.284067734199593	-1.400632259931629	148.8913473178021	0	0.9399999999999999	0	44.87015756648692	-10.00006363989163	0	59.93091030949132	1.045991708618037	-4.999990506721484	0	0	44.87015756648692	-10.00006363989163	0	59.93091030949132	1.045991708618037	-4.999990506721484	0	0	12.35853961514119	-4.722504119879657	5.784409923515624	-21.57150691956307	-39.94896691384926	8.307755972356968	47.82441069201083	45.00075374081322	0	0	0	-14.17929617494894	0	75.10781610287005	45.00075374081322	0	0
7.15	2.272784712050624	-1.412431609147883	148.8838887104005	0	0.9399999999999999	0	44.87162216780111	-10.00006187588596	0	59.93168249222306	1.046005185749133	-4.999990819228024	0	0	44.87162216780111	-10.00006187588596	0	59.93168249222306	1.046005185749133	-4.999990819228024	0	0	12.34916275780181	-4.743896752649444	5.763391438933533	-9.083471732814161	-34.75374828940319	18.8926882854171	34.91599581593325	45.00073605354614	0	0	0	-14.18489422995833	0	75.10660194426615	45.00073605354614	0	0
7.16	2.266399141575465	-1.414336627080726	148.8942061772289	0	0.9399999999999999	0	44.87268251193376	-10.00006062711941	0	59.9322404946623	1.046014924728932	-4.999991038549245	0	0	44.87268251193376	-10.00006062711941	0	59.9322404946623	1.046014924728932	-4.999991038549245	0	0	12.3344858581746	-4.73356419809573	5.771889379727561	-14.16316426605861	-37.54408319056913	13.61716236794756	39.93558845376572	45.00072345440928	0	0	0	-14.18896694026783	0	75.1057229159472	45.00072345440928	0	0
7.17	2.283661802098696	-1.418941005501832	148.8808428418289	0	0.9399999999999999	0	44.8737191568547	-10.0000593281963	0	59.93276504231128	1.04602407981249	-4.999991269986875	0	0	44.8737191568547	-10.0000593281963	0	59.93276504231128	1.04602407981249	-4.999991269986875	0	0	12.32919418662619	-4.730174349225399	5.770761544620639	-29.75898737317486	-42.38372247488233	-4.717833009637219	55.02151109616017	45.00071051331289	0	0	0	-14.1928470118478	0	75.10486353457996	45.00071051331289	0	0
7.18	2.256006592510072	-1.430449234956172	148.8842844104942	0	0.9399999999999999	0	44.87486986497374	-10.0000579016283	0	59.93334894455563	1.046034270829164	-4.999991523263486	0	0	44.87486986497374	-10.0000579016283	0	59.93334894455563	1.046034270829164	-4.999991523263486	0	0	12.32282598849295	-4.728461749414575	5.776197704892978	-48.39201027088501	-43.53266194454169	-28.07172975236309	70.568974816338	45.00069626305613	0	0	0	-14.19716900466403	0	75.10390959448232	45.00069626305613	0	0
7.19	2.260029006524523	-1.430265979980662	148.8721235754299	0	0.9399999999999999	0	44.87566095978027	-10.00005689697144	0	59.93374316829961	1.046041151331486	-4.999991702427913	0	0	44.87566095978027	-10.00005689697144	0	59.93374316829961	1.046041151331486	-4.999991702427913	0	0	12.30942462531225	-4.716007864918661	5.769716023792895	-62.96450274598845	-41.52491382294077	-47.05188451436971	81.99130840829085	45.00068627097684	0	0	0	-14.20010644562329	0	75.10325377485536	45.00068627097684	0	0
